<?xml version="1.0" standalone="no"?><!DOCTYPE svg PUBLIC "-//W3C//DTD SVG 1.1//EN" "http://www.w3.org/Graphics/SVG/1.1/DTD/svg11.dtd"><svg t="1574843691365" class="icon" viewBox="0 0 1024 1024" version="1.1" xmlns="http://www.w3.org/2000/svg" p-id="3722" xmlns:xlink="http://www.w3.org/1999/xlink" width="16" height="16"><defs><style type="text/css"></style></defs><path d="M164.544 272H576c211.456 0 384 156.864 384 352s-172.544 352-384 352H192a32 32 0 1 1 0-64h384c177.344 0 320-129.664 320-288s-142.656-288-320-288H164.544L356.48 503.936a32 32 0 0 1-42.176 48.128l-228.48-199.872c-3.136-2.88-3.136-2.88-6.016-6.016a64 64 0 0 1 6.08-90.368L314.368 55.936a32 32 0 1 1 42.112 48.128L164.544 272z" p-id="3723"></path></svg>