<?xml version="1.0" standalone="no"?><!DOCTYPE svg PUBLIC "-//W3C//DTD SVG 1.1//EN" "http://www.w3.org/Graphics/SVG/1.1/DTD/svg11.dtd"><svg t="1574475534731" class="icon" viewBox="0 0 1024 1024" version="1.1" xmlns="http://www.w3.org/2000/svg" p-id="3660" xmlns:xlink="http://www.w3.org/1999/xlink" width="16" height="16"><defs><style type="text/css"></style></defs><path d="M543.744 709.76l262.4-262.4a32 32 0 0 1 45.248 45.312l-316.8 316.8a32 32 0 0 1-45.248 0l-316.8-316.8a32 32 0 1 1 45.312-45.248l261.888 261.952V64a32 32 0 1 1 64 0v645.76zM96 928h832V704a32 32 0 1 1 64 0v256a32 32 0 0 1-32 32H64a32 32 0 0 1-32-32v-256a32 32 0 1 1 64 0v224z" p-id="3661"></path></svg>