<?xml version="1.0" standalone="no"?><!DOCTYPE svg PUBLIC "-//W3C//DTD SVG 1.1//EN" "http://www.w3.org/Graphics/SVG/1.1/DTD/svg11.dtd"><svg t="1574839575080" class="icon" viewBox="0 0 1024 1024" version="1.1" xmlns="http://www.w3.org/2000/svg" p-id="3482" xmlns:xlink="http://www.w3.org/1999/xlink" width="16" height="16"><defs><style type="text/css"></style></defs><path d="M176 112a64 64 0 0 0-64 64v672.064a64 64 0 0 0 64 64h672a64 64 0 0 0 64-64V176a64 64 0 0 0-64-64H176z m0-64h671.936a128 128 0 0 1 128 128v672a128 128 0 0 1-128 128H176a128 128 0 0 1-128-128V176a128 128 0 0 1 128-128z" p-id="3483"></path></svg>